<svg width="20" height="20" viewBox="0 0 20 20" fill="none" xmlns="http://www.w3.org/2000/svg"><path d="M18.47 19.53a.75.75 0 101.06-1.06l-1.06 1.06zM11.5 9.25a.75.75 0 000-1.5v1.5zm-6-1.5a.75.75 0 000 1.5v-1.5zm3 7.5A6.75 6.75 0 011.75 8.5H.25a8.25 8.25 0 008.25 8.25v-1.5zM1.75 8.5A6.75 6.75 0 018.5 1.75V.25A8.25 8.25 0 00.25 8.5h1.5zM8.5 1.75a6.75 6.75 0 016.75 6.75h1.5A8.25 8.25 0 008.5.25v1.5zm11.03 16.72l-5.196-5.197-1.061 1.06 5.197 5.197 1.06-1.06zM15.25 8.5a6.73 6.73 0 01-1.977 4.773l1.06 1.06A8.226 8.226 0 0016.75 8.5h-1.5zm-1.977 4.773A6.727 6.727 0 018.5 15.25v1.5a8.226 8.226 0 005.834-2.416l-1.061-1.061zM11.5 7.75h-6v1.5h6v-1.5z" fill="#A2ACB1"/></svg>