<svg width="68" height="80" viewBox="0 0 68 80" fill="none" xmlns="http://www.w3.org/2000/svg"><path d="M58.352 14.982a29.176 29.176 0 11-58.352 0h58.352z" fill="#494949"/><path d="M51.48 41.92c-5.916 5.472-13.939 8.546-22.304 8.546-8.365 0-16.388-3.074-22.303-8.545l2.392-2.212c5.28 4.884 12.443 7.628 19.911 7.628 7.468 0 14.63-2.744 19.912-7.629l2.391 2.213z" fill="#000"/><path d="M58.352 14.982a29.176 29.176 0 11-58.352 0h12.362a16.814 16.814 0 0033.628 0h12.362z" fill="#000"/><path d="M53.492 21.29H64.66c-.709 3.943-6.198 11.829-15.77 11.829M25.203 14.64c-1.798-2.359-4.409-7.957-.472-11.486m9.091 11.486c-1.798-2.359-4.409-7.957-.472-11.486" stroke="#000" stroke-width="3.154"/><path d="M0 68.998v-4.294h.689c.231-.157.443-.375.635-.655.192-.283.357-.68.493-1.192.137-.515.235-1.194.294-2.037l.312-4.236h6.845v8.12h1.074v4.29H8.017V66.59H2.325v2.408H0zm3.464-4.294h3.478v-6.156h-2.35l-.156 2.272a13.45 13.45 0 01-.205 1.68 8.65 8.65 0 01-.337 1.27c-.13.359-.274.67-.43.934zm11.49 2.027c-.788 0-1.465-.161-2.032-.483a3.338 3.338 0 01-1.304-1.359c-.303-.583-.455-1.258-.455-2.027 0-.772.152-1.448.455-2.028a3.298 3.298 0 011.304-1.358c.567-.325 1.244-.488 2.032-.488.789 0 1.464.163 2.028.488a3.258 3.258 0 011.304 1.358c.306.58.46 1.256.46 2.028 0 .769-.154 1.444-.46 2.027a3.297 3.297 0 01-1.304 1.359c-.564.322-1.24.483-2.028.483zm.015-1.802c.287 0 .53-.088.728-.264.199-.176.35-.42.454-.733a3.32 3.32 0 00.162-1.085c0-.417-.054-.781-.162-1.094-.104-.313-.255-.557-.454-.733a1.06 1.06 0 00-.728-.264c-.296 0-.547.088-.752.264-.202.176-.357.42-.464.733a3.463 3.463 0 00-.157 1.094c0 .41.052.772.157 1.085.107.313.262.557.464.733.205.175.456.263.752.263zm11.464-8.579l.645 1.578c-.206.16-.43.28-.675.361a3.781 3.781 0 01-.884.166c-.348.03-.788.046-1.319.05-.6.002-1.084.085-1.456.248-.371.16-.653.422-.845.787-.189.361-.314.843-.376 1.446h.063c.215-.453.522-.81.919-1.07s.91-.39 1.539-.39c.654 0 1.224.14 1.71.424.485.28.86.68 1.123 1.202.264.518.396 1.133.396 1.847 0 .755-.151 1.413-.454 1.973-.303.56-.736.994-1.3 1.3-.563.306-1.237.46-2.022.46-.785 0-1.461-.16-2.028-.48-.563-.319-.998-.788-1.304-1.407-.303-.622-.455-1.385-.455-2.29v-.548c0-1.856.375-3.223 1.124-4.099.75-.876 1.843-1.317 3.283-1.324.362-.003.689-.003.982 0 .296 0 .555-.015.777-.044a1.42 1.42 0 00.557-.19zm-2.922 8.578c.274 0 .51-.073.709-.22a1.39 1.39 0 00.459-.63c.107-.273.161-.602.161-.986 0-.385-.055-.712-.166-.982a1.327 1.327 0 00-.46-.616 1.179 1.179 0 00-.708-.215c-.208 0-.397.04-.566.122-.17.078-.313.196-.43.352a1.637 1.637 0 00-.269.567 2.915 2.915 0 00-.093.772c0 .573.12 1.022.362 1.348.24.326.575.489 1.001.489zm5.016 4.475V59.085h2.365v1.285h.073c.098-.228.236-.447.416-.66.182-.21.413-.383.693-.517.284-.137.622-.205 1.016-.205.521 0 1.008.136 1.461.41.456.274.824.695 1.104 1.265.28.57.42 1.297.42 2.18 0 .85-.135 1.561-.405 2.134-.267.573-.629 1.004-1.085 1.29a2.76 2.76 0 01-1.51.43c-.377 0-.704-.062-.981-.186a2.138 2.138 0 01-.699-.488 2.347 2.347 0 01-.43-.65h-.049v4.03h-2.389zm2.34-6.566c0 .404.054.756.162 1.056.11.3.268.532.474.698.208.163.457.245.747.245.293 0 .542-.082.748-.245a1.51 1.51 0 00.464-.698c.107-.3.16-.652.16-1.056 0-.403-.053-.754-.16-1.05a1.478 1.478 0 00-.464-.689 1.152 1.152 0 00-.748-.244c-.293 0-.542.08-.747.24-.206.159-.363.387-.474.683-.108.297-.162.65-.162 1.06zm7.863-1.582h4.776c1.033 0 1.842.242 2.428.727.587.483.881 1.137.885 1.965-.004.537-.139 1.004-.406 1.402-.264.394-.643.7-1.138.918-.492.215-1.082.323-1.769.323h-6.179v-7.505h2.262v5.677h3.917c.313 0 .57-.076.772-.23a.723.723 0 00.308-.59.768.768 0 00-.308-.62c-.202-.16-.46-.24-.772-.24H38.73v-1.827zm8.763 5.334v-7.503h2.389v7.504h-2.39zm6.164-3.092l2.399-4.411h2.296v7.504H56.09v-4.427l-2.394 4.427h-2.301v-7.505h2.262v4.412zm2.184-7.07h1.573c-.003.613-.235 1.105-.694 1.476-.456.372-1.075.557-1.856.557-.782 0-1.402-.185-1.862-.557-.456-.371-.682-.863-.679-1.475h1.559a.86.86 0 00.22.586c.15.176.403.264.762.264.348 0 .597-.087.747-.26a.897.897 0 00.23-.59zM9.458 77.455V69.95h2.39v2.794h2.646l1.822-2.794h2.765l-2.525 3.757 2.55 3.747h-2.8l-1.646-2.492h-2.813v2.492H9.458zm13.589.141c-.788 0-1.466-.16-2.032-.483a3.337 3.337 0 01-1.305-1.359c-.303-.583-.454-1.258-.454-2.027 0-.772.151-1.448.454-2.027a3.297 3.297 0 011.305-1.359c.566-.325 1.244-.488 2.032-.488s1.464.163 2.028.488a3.258 3.258 0 011.304 1.359c.306.58.46 1.255.46 2.027 0 .769-.154 1.444-.46 2.027a3.296 3.296 0 01-1.304 1.359c-.564.322-1.24.483-2.028.483zm.015-1.802c.286 0 .53-.088.728-.264.198-.176.35-.42.454-.733.108-.313.161-.674.161-1.085 0-.416-.053-.781-.16-1.094-.105-.313-.257-.557-.455-.733a1.059 1.059 0 00-.728-.264c-.297 0-.547.088-.753.264-.201.176-.356.42-.464.733a3.466 3.466 0 00-.156 1.094c0 .41.052.772.156 1.085.108.313.263.557.464.733.206.176.456.264.753.264z" fill="#080809"/><path d="M31.829 80V67.45h2.291V80h-2.291zm0-2.404a4.554 4.554 0 01-1.637-.283 3.837 3.837 0 01-1.285-.796 3.647 3.647 0 01-.835-1.227 3.994 3.994 0 01-.298-1.563c0-.57.1-1.091.298-1.563a3.62 3.62 0 01.835-1.231c.362-.346.79-.611 1.285-.797a4.556 4.556 0 011.637-.283h.4v7.743h-.4zm0-1.817h.244V71.67h-.244c-.241 0-.461.052-.66.157a1.53 1.53 0 00-.503.434 2.05 2.05 0 00-.317.65c-.072.248-.108.52-.108.816 0 .388.065.738.195 1.05.13.31.315.554.552.733.242.18.522.269.84.269zm2.291 1.817h-.396v-7.743h.396c.596 0 1.142.094 1.637.283.495.186.923.451 1.285.797.361.345.641.755.84 1.23.199.473.298.994.298 1.564 0 .57-.1 1.091-.298 1.563a3.613 3.613 0 01-.84 1.227c-.362.342-.79.607-1.285.796a4.554 4.554 0 01-1.637.283zm0-1.817c.244 0 .464-.052.66-.156a1.5 1.5 0 00.498-.43 2.06 2.06 0 00.322-.65 2.84 2.84 0 00.113-.816 2.7 2.7 0 00-.196-1.055 1.737 1.737 0 00-.552-.733 1.351 1.351 0 00-.845-.269h-.24v4.109h.24zm8.799 1.817c-.785 0-1.463-.154-2.033-.464a3.21 3.21 0 01-1.309-1.334c-.303-.58-.454-1.268-.454-2.066 0-.775.153-1.453.459-2.032a3.315 3.315 0 011.295-1.359c.556-.325 1.213-.488 1.968-.488.535 0 1.023.083 1.466.249.443.166.826.412 1.148.738.323.325.573.728.752 1.206.18.476.27 1.021.27 1.637v.596h-6.523v-1.387h4.3a1.346 1.346 0 00-.181-.68 1.23 1.23 0 00-.484-.464 1.396 1.396 0 00-.699-.17c-.267 0-.506.06-.718.18a1.36 1.36 0 00-.699 1.172v1.413c0 .306.06.574.181.806.12.228.292.405.513.532.222.127.486.19.792.19a1.8 1.8 0 00.576-.087c.173-.059.321-.145.445-.26a1.07 1.07 0 00.278-.42l2.194.064c-.091.492-.292.92-.601 1.285a3.045 3.045 0 01-1.207.845c-.498.199-1.075.298-1.73.298z" fill="#080809"/><path d="M54.246 55.12c-.358-.47-.878-1.585-.093-2.288m1.81 2.288c-.358-.47-.878-1.585-.094-2.288" stroke="#000" stroke-width=".628"/></svg>