<svg width="68" height="80" viewBox="0 0 68 80" fill="none" xmlns="http://www.w3.org/2000/svg"><path d="M58.378 14.982a29.176 29.176 0 11-58.352 0h58.352z" fill="#D4AD89"/><path d="M51.505 41.92c-5.915 5.472-13.938 8.546-22.303 8.546s-16.388-3.074-22.303-8.545l2.392-2.212c5.28 4.884 12.443 7.628 19.91 7.628 7.47 0 14.632-2.744 19.912-7.629l2.392 2.213z" fill="#3D1D0B"/><path d="M58.378 14.982a29.176 29.176 0 11-58.352 0h12.362a16.814 16.814 0 1033.627 0h12.363z" fill="#3D1D0B"/><path d="M53.518 21.29h11.168c-.709 3.943-6.198 11.829-15.77 11.829" stroke="#3D1D0B" stroke-width="3.154"/><path d="M25.229 14.64c-1.798-2.359-4.409-7.957-.472-11.486m9.091 11.486c-1.798-2.359-4.409-7.957-.472-11.486" stroke="#D4AD89" stroke-width="3.154"/><path d="M.026 68.998v-4.294h.689c.231-.157.443-.375.635-.655.192-.283.356-.68.493-1.192.137-.515.235-1.194.293-2.037l.313-4.236h6.845v8.12h1.074v4.29H8.043V66.59H2.35v2.408H.026zm3.464-4.294h3.478v-6.156h-2.35l-.156 2.272a13.45 13.45 0 01-.205 1.68 8.651 8.651 0 01-.337 1.27c-.13.359-.274.67-.43.934zm11.49 2.027c-.788 0-1.465-.161-2.032-.483a3.337 3.337 0 01-1.305-1.359c-.302-.583-.454-1.258-.454-2.027 0-.772.152-1.448.454-2.028a3.297 3.297 0 011.305-1.358c.567-.325 1.244-.488 2.032-.488s1.464.163 2.028.488a3.258 3.258 0 011.304 1.358c.306.58.46 1.256.46 2.028 0 .769-.154 1.444-.46 2.027a3.296 3.296 0 01-1.304 1.359c-.564.322-1.24.483-2.028.483zm.015-1.802c.287 0 .53-.088.728-.264.198-.176.35-.42.454-.733.108-.313.161-.674.161-1.085a3.38 3.38 0 00-.16-1.094c-.105-.313-.257-.557-.455-.733a1.059 1.059 0 00-.728-.264c-.296 0-.547.088-.752.264-.202.176-.357.42-.465.733a3.466 3.466 0 00-.156 1.094c0 .41.052.772.156 1.085.108.313.263.557.464.733.206.175.456.263.753.263zm11.464-8.579l.645 1.578c-.206.16-.43.28-.675.361a3.782 3.782 0 01-.884.166 17.5 17.5 0 01-1.319.05c-.6.002-1.085.085-1.456.248-.371.16-.653.422-.845.787-.189.361-.314.843-.376 1.446h.063c.215-.453.521-.81.919-1.07.397-.26.91-.39 1.539-.39.654 0 1.224.14 1.71.424.485.28.86.68 1.123 1.202.264.518.396 1.133.396 1.847 0 .755-.151 1.413-.454 1.973-.303.56-.736.994-1.3 1.3-.563.306-1.238.46-2.023.46-.784 0-1.46-.16-2.027-.48-.564-.319-.998-.788-1.304-1.407-.303-.622-.455-1.385-.455-2.29v-.548c0-1.856.375-3.223 1.124-4.099.749-.876 1.843-1.317 3.283-1.324.361-.003.689-.003.982 0 .296 0 .555-.015.777-.044a1.42 1.42 0 00.557-.19zm-2.922 8.578c.274 0 .51-.073.709-.22.198-.146.351-.356.459-.63.107-.273.161-.602.161-.986 0-.385-.055-.712-.166-.982a1.327 1.327 0 00-.46-.616 1.178 1.178 0 00-.708-.215c-.208 0-.397.04-.567.122a1.128 1.128 0 00-.43.352 1.637 1.637 0 00-.268.567 2.915 2.915 0 00-.093.772c0 .573.12 1.022.362 1.348.24.326.574.489 1.001.489zm5.016 4.475V59.085h2.365v1.285h.073a2.62 2.62 0 01.415-.66 2.12 2.12 0 01.694-.517c.283-.137.622-.205 1.016-.205.521 0 1.008.136 1.461.41.456.274.824.695 1.104 1.265.28.57.42 1.297.42 2.18 0 .85-.135 1.561-.405 2.134-.267.573-.629 1.004-1.085 1.29-.453.287-.956.43-1.51.43-.377 0-.704-.062-.981-.186a2.138 2.138 0 01-.699-.488 2.347 2.347 0 01-.43-.65h-.049v4.03h-2.389zm2.34-6.566c0 .404.054.756.162 1.056.11.3.268.532.474.698.208.163.457.245.747.245.293 0 .542-.082.747-.245a1.51 1.51 0 00.465-.698c.107-.3.16-.652.16-1.056 0-.403-.053-.754-.16-1.05a1.479 1.479 0 00-.465-.689 1.152 1.152 0 00-.747-.244c-.293 0-.542.08-.748.24-.205.159-.363.387-.473.683-.108.297-.162.65-.162 1.06zm7.862-1.582h4.777c1.033 0 1.842.242 2.428.727.586.483.881 1.137.884 1.965-.003.537-.138 1.004-.405 1.402-.264.394-.643.7-1.138.918-.492.215-1.082.323-1.769.323h-6.179v-7.505h2.262v5.677h3.917c.313 0 .57-.076.772-.23a.723.723 0 00.308-.59.768.768 0 00-.308-.62c-.202-.16-.46-.24-.772-.24h-4.777v-1.827zm8.764 5.334v-7.503h2.389v7.504h-2.39zm6.164-3.092l2.399-4.411h2.296v7.504h-2.262v-4.427l-2.394 4.427H51.42v-7.505h2.262v4.412zm2.184-7.07h1.573c-.003.613-.235 1.105-.694 1.476-.456.372-1.075.557-1.857.557-.781 0-1.402-.185-1.86-.557-.457-.371-.683-.863-.68-1.475h1.559c-.004.215.07.41.22.586s.403.264.761.264c.349 0 .598-.087.748-.26a.897.897 0 00.23-.59z" fill="#080809"/><path d="M9.484 77.455V69.95h2.39v2.794h2.646l1.822-2.794h2.765l-2.526 3.757 2.55 3.747h-2.799l-1.646-2.492h-2.813v2.492H9.484zm13.589.141c-.788 0-1.466-.16-2.032-.483a3.337 3.337 0 01-1.305-1.359c-.303-.583-.454-1.258-.454-2.027 0-.772.151-1.448.454-2.027a3.297 3.297 0 011.305-1.359c.566-.325 1.244-.488 2.032-.488s1.464.163 2.027.488a3.258 3.258 0 011.305 1.359c.306.58.46 1.255.46 2.027 0 .769-.154 1.444-.46 2.027a3.296 3.296 0 01-1.305 1.359c-.563.322-1.239.483-2.027.483zm.015-1.802c.286 0 .529-.088.728-.264.198-.176.35-.42.454-.733.107-.313.161-.674.161-1.085a3.37 3.37 0 00-.161-1.094c-.104-.313-.256-.557-.454-.733a1.06 1.06 0 00-.728-.264c-.297 0-.547.088-.753.264-.202.176-.356.42-.464.733a3.466 3.466 0 00-.156 1.094c0 .41.052.772.156 1.085.108.313.262.557.464.733.206.176.456.264.753.264zM31.855 80V67.45h2.29V80h-2.29zm0-2.404a4.554 4.554 0 01-1.637-.283 3.835 3.835 0 01-1.285-.796 3.647 3.647 0 01-.835-1.227 3.992 3.992 0 01-.298-1.563c0-.57.099-1.091.298-1.563a3.62 3.62 0 01.835-1.231c.362-.346.79-.611 1.285-.797a4.556 4.556 0 011.637-.283h.4v7.743h-.4zm0-1.817h.244V71.67h-.244c-.241 0-.461.052-.66.157a1.53 1.53 0 00-.503.434 2.05 2.05 0 00-.318.65c-.071.248-.107.52-.107.816 0 .388.065.738.195 1.05.13.31.315.554.552.733.241.18.521.269.84.269zm2.29 1.817h-.395v-7.743h.396c.596 0 1.142.094 1.636.283.496.186.924.451 1.285.797.362.345.642.755.84 1.23.2.473.299.994.299 1.564 0 .57-.1 1.091-.298 1.563a3.613 3.613 0 01-.84 1.227c-.362.342-.79.607-1.285.796a4.554 4.554 0 01-1.637.283zm0-1.817c.245 0 .465-.052.66-.156.196-.105.362-.248.499-.43a2.06 2.06 0 00.322-.65 2.84 2.84 0 00.113-.816 2.7 2.7 0 00-.196-1.055 1.737 1.737 0 00-.552-.733 1.351 1.351 0 00-.845-.269h-.24v4.109h.24zm8.8 1.817c-.785 0-1.463-.154-2.033-.464a3.21 3.21 0 01-1.309-1.334c-.303-.58-.454-1.268-.454-2.066 0-.775.153-1.453.459-2.032a3.316 3.316 0 011.295-1.359c.556-.325 1.213-.488 1.968-.488.535 0 1.023.083 1.466.249a3.15 3.15 0 011.148.738c.322.325.573.728.752 1.206.18.476.27 1.021.27 1.637v.596h-6.523v-1.387h4.3a1.346 1.346 0 00-.181-.68 1.23 1.23 0 00-.484-.464 1.396 1.396 0 00-.699-.17c-.267 0-.506.06-.718.18a1.36 1.36 0 00-.699 1.172v1.413c0 .306.06.574.181.806.12.228.292.405.513.532.222.127.485.19.792.19.211 0 .403-.029.576-.087a1.23 1.23 0 00.445-.26c.123-.113.216-.253.278-.42l2.194.064c-.091.492-.292.92-.601 1.285a3.045 3.045 0 01-1.207.845c-.498.199-1.075.298-1.73.298z" fill="#3D1D0B"/><path d="M54.272 55.12c-.358-.47-.878-1.585-.094-2.288m1.812 2.288c-.359-.47-.879-1.585-.095-2.288" stroke="#000" stroke-width=".628"/></svg>