<svg width="159" height="56" viewBox="0 0 159 56" fill="none" xmlns="http://www.w3.org/2000/svg"><path d="M58.455 15.482a29.176 29.176 0 11-58.351 0h58.351z" fill="#D4AD89"/><path d="M51.583 42.42c-5.915 5.472-13.938 8.546-22.303 8.546-8.366 0-16.389-3.074-22.304-8.545l2.392-2.212c5.281 4.884 12.443 7.628 19.912 7.628 7.468 0 14.63-2.744 19.911-7.629l2.392 2.213z" fill="#3D1D0B"/><path d="M58.455 15.482a29.176 29.176 0 11-58.351 0h12.362a16.814 16.814 0 0033.627 0h12.362z" fill="#3D1D0B"/><path d="M53.596 21.79h11.168c-.71 3.943-6.198 11.829-15.771 11.829" stroke="#3D1D0B" stroke-width="3.154"/><path d="M25.307 15.14c-1.798-2.359-4.41-7.957-.472-11.486m9.09 11.486c-1.797-2.359-4.408-7.957-.471-11.486" stroke="#D4AD89" stroke-width="3.154"/><path d="M72.052 33.302v-6.323h1.014c.34-.23.652-.551.935-.964.283-.417.525-1.002.727-1.755.2-.757.345-1.757.431-3l.46-6.236h10.078V26.98h1.582v6.316h-3.424v-3.54h-8.38v3.547h-3.423zm5.1-6.323h5.121v-9.063h-3.46l-.23 3.345c-.062.935-.163 1.76-.302 2.474-.14.715-.305 1.338-.496 1.87a8.195 8.195 0 01-.633 1.374zm16.918 2.985c-1.161 0-2.158-.237-2.993-.712a4.913 4.913 0 01-1.92-2c-.446-.858-.67-1.853-.67-2.985 0-1.136.224-2.131.67-2.985a4.854 4.854 0 011.92-2c.835-.479 1.832-.719 2.993-.719 1.16 0 2.155.24 2.985.72a4.796 4.796 0 011.92 2c.45.853.676 1.848.676 2.984 0 1.132-.225 2.127-.676 2.986a4.854 4.854 0 01-1.92 2c-.83.474-1.825.711-2.986.711zm.021-2.654c.422 0 .78-.13 1.072-.388.292-.26.515-.619.669-1.08.158-.46.237-.992.237-1.596 0-.614-.079-1.151-.237-1.611-.154-.46-.377-.82-.67-1.08a1.56 1.56 0 00-1.071-.388c-.436 0-.806.13-1.108.389-.297.259-.525.618-.683 1.079-.153.46-.23.997-.23 1.61 0 .605.077 1.137.23 1.598.158.46.386.82.683 1.079.302.259.672.388 1.108.388zm16.878-12.63l.95 2.323a3.308 3.308 0 01-.993.532 5.58 5.58 0 01-1.302.244c-.513.044-1.16.067-1.942.072-.882.005-1.597.127-2.143.367a2.478 2.478 0 00-1.245 1.158c-.278.532-.462 1.242-.554 2.13h.094a3.77 3.77 0 011.352-1.576c.585-.384 1.34-.575 2.266-.575.964 0 1.803.208 2.518.625a4.166 4.166 0 011.654 1.77c.388.762.583 1.669.583 2.719 0 1.112-.223 2.081-.669 2.906a4.655 4.655 0 01-1.914 1.913c-.829.45-1.822.676-2.978.676-1.155 0-2.15-.235-2.985-.705-.829-.47-1.469-1.16-1.92-2.071-.446-.916-.669-2.04-.669-3.374v-.805c0-2.734.551-4.745 1.654-6.035 1.103-1.29 2.714-1.94 4.834-1.95a72.408 72.408 0 011.446 0c.436 0 .817-.021 1.143-.064.326-.048.6-.142.82-.28zm-4.301 12.63c.403 0 .75-.108 1.043-.324.292-.215.518-.525.676-.928.158-.402.237-.887.237-1.453 0-.565-.081-1.047-.244-1.445-.158-.398-.384-.7-.676-.907a1.736 1.736 0 00-1.043-.316c-.307 0-.585.06-.835.18-.249.115-.46.287-.633.518a2.417 2.417 0 00-.395.834c-.091.33-.137.71-.137 1.136 0 .845.178 1.506.532 1.986.355.48.847.72 1.475.72zm7.385 6.589V18.707h3.482V20.6h.108a3.81 3.81 0 01.611-.971 3.076 3.076 0 011.021-.762c.418-.202.916-.303 1.497-.303.767 0 1.484.202 2.15.605.672.402 1.213 1.023 1.626 1.863.412.839.618 1.908.618 3.208 0 1.251-.199 2.299-.597 3.143-.393.844-.925 1.477-1.596 1.899a4.073 4.073 0 01-2.223.633c-.556 0-1.038-.091-1.446-.273a3.148 3.148 0 01-1.028-.72 3.425 3.425 0 01-.633-.956h-.072V33.9h-3.518zm3.446-9.668c0 .595.079 1.113.237 1.554.163.441.396.784.698 1.029.307.24.674.36 1.1.36.432 0 .799-.12 1.101-.36.302-.245.53-.588.683-1.029.158-.441.238-.959.238-1.553 0-.595-.08-1.11-.238-1.547-.153-.436-.381-.774-.683-1.014-.297-.24-.664-.36-1.101-.36-.431 0-.798.118-1.1.353-.302.234-.535.57-.698 1.007-.158.436-.237.956-.237 1.56zm11.575-2.331h7.033c1.52 0 2.712.358 3.575 1.073.863.71 1.297 1.673 1.302 2.891-.005.791-.204 1.48-.597 2.065-.389.58-.947 1.03-1.676 1.352-.724.316-1.592.475-2.604.475h-9.097V18.707h3.33v8.358h5.767c.46 0 .839-.112 1.136-.338.298-.225.449-.515.454-.87a1.13 1.13 0 00-.454-.913c-.297-.235-.676-.353-1.136-.353h-7.033v-2.69zm12.902 7.856V18.707h3.518v11.049h-3.518zm9.076-4.553l3.532-6.496h3.381v11.049h-3.331v-6.517l-3.524 6.517h-3.388V18.707h3.33v6.495zm3.215-10.409h2.317c-.005.902-.346 1.626-1.022 2.173-.671.546-1.582.82-2.733.82s-2.065-.274-2.741-.82c-.671-.547-1.004-1.271-.999-2.173h2.294c-.005.317.103.604.324.863.22.26.594.389 1.122.389.513 0 .88-.127 1.1-.381.221-.254.334-.545.338-.87z" fill="#080809"/><path d="M72.052 45.752V34.704h3.517v4.114h3.897l2.683-4.114h4.071l-3.719 5.531 3.755 5.517h-4.121l-2.425-3.668h-4.14v3.668h-3.518zm20.007.209c-1.16 0-2.158-.237-2.992-.712a4.914 4.914 0 01-1.92-2c-.447-.858-.67-1.853-.67-2.985 0-1.136.223-2.131.67-2.985a4.856 4.856 0 011.92-2c.834-.479 1.832-.719 2.992-.719s2.156.24 2.985.72a4.796 4.796 0 011.92 2c.451.853.677 1.848.677 2.984 0 1.132-.226 2.127-.676 2.985a4.852 4.852 0 01-1.92 2c-.83.475-1.826.712-2.986.712zm.022-2.654c.422 0 .779-.13 1.071-.389.293-.258.516-.618.67-1.078.157-.46.237-.993.237-1.597 0-.614-.08-1.151-.238-1.612-.153-.46-.376-.82-.669-1.078a1.56 1.56 0 00-1.071-.389c-.437 0-.806.13-1.108.389-.297.258-.525.618-.683 1.078-.154.46-.23.998-.23 1.612 0 .604.076 1.136.23 1.596.158.46.386.82.683 1.08.302.258.671.388 1.108.388zm12.907 6.193V31.021h3.374V49.5h-3.374zm0-3.539c-.877 0-1.68-.139-2.409-.417a5.647 5.647 0 01-1.892-1.173 5.375 5.375 0 01-1.23-1.805c-.292-.695-.439-1.463-.439-2.302s.147-1.606.439-2.302a5.36 5.36 0 011.23-1.812 5.497 5.497 0 011.892-1.173c.729-.278 1.532-.417 2.409-.417h.59v11.401h-.59zm0-2.676h.36v-6.049h-.36c-.354 0-.678.077-.971.23a2.262 2.262 0 00-.741.64 3.02 3.02 0 00-.467.957 4.29 4.29 0 00-.158 1.201 4 4 0 00.287 1.547c.192.455.463.815.813 1.079.355.263.767.395 1.237.395zm3.374 2.676h-.583v-11.4h.583c.877 0 1.681.138 2.41.416a5.502 5.502 0 011.891 1.173 5.282 5.282 0 011.237 1.813c.293.695.439 1.462.439 2.301 0 .84-.146 1.607-.439 2.302a5.3 5.3 0 01-1.237 1.805 5.652 5.652 0 01-1.891 1.173c-.729.278-1.533.417-2.41.417zm0-2.676c.36 0 .683-.076.971-.23.288-.153.532-.364.734-.633.206-.273.364-.592.474-.957.111-.369.166-.77.166-1.2 0-.581-.096-1.099-.288-1.554a2.56 2.56 0 00-.813-1.08c-.345-.263-.76-.395-1.244-.395h-.353v6.05h.353zm12.954 2.676c-1.155 0-2.153-.228-2.992-.683a4.73 4.73 0 01-1.928-1.964c-.446-.853-.668-1.868-.668-3.043 0-1.14.225-2.138.676-2.992a4.877 4.877 0 011.906-2c.82-.479 1.786-.719 2.899-.719a6.1 6.1 0 012.157.367 4.636 4.636 0 011.691 1.086c.475.48.844 1.072 1.108 1.777.263.7.395 1.503.395 2.41v.877h-9.603v-2.043h6.33a1.97 1.97 0 00-.266-1 1.804 1.804 0 00-.712-.683 2.055 2.055 0 00-1.029-.252 2.1 2.1 0 00-1.057.266 1.998 1.998 0 00-1.028 1.726v2.08c0 .45.088.846.266 1.186.177.336.429.597.755.784.326.187.714.28 1.165.28.312 0 .595-.042.849-.129.254-.086.472-.213.655-.38.182-.169.318-.375.41-.62l3.229.094a3.99 3.99 0 01-.885 1.892c-.45.532-1.043.947-1.776 1.244-.734.293-1.583.44-2.547.44z" fill="#3D1D0B"/><path d="M151.92 12.869c-.527-.692-1.293-2.334-.138-3.369m2.666 3.369c-.527-.692-1.293-2.334-.138-3.369" stroke="#000" stroke-width=".925"/></svg>