<svg width="159" height="56" viewBox="0 0 159 56" fill="none" xmlns="http://www.w3.org/2000/svg"><path d="M58.43 15.482a29.176 29.176 0 11-58.352 0h58.351z" fill="#494949"/><path d="M51.557 42.42c-5.915 5.472-13.938 8.546-22.303 8.546-8.366 0-16.388-3.074-22.304-8.545l2.392-2.212c5.281 4.884 12.443 7.628 19.912 7.628 7.468 0 14.63-2.744 19.911-7.629l2.392 2.213z" fill="#000"/><path d="M58.43 15.482a29.176 29.176 0 11-58.352 0H12.44a16.814 16.814 0 0033.627 0H58.43z" fill="#000"/><path d="M53.57 21.79h11.168c-.71 3.943-6.198 11.829-15.771 11.829M25.28 15.14c-1.797-2.359-4.408-7.957-.471-11.486M33.9 15.14c-1.798-2.359-4.41-7.957-.472-11.486" stroke="#000" stroke-width="3.154"/><path d="M72.026 33.302v-6.323h1.014c.34-.23.652-.551.935-.964.283-.417.525-1.002.727-1.755.201-.757.345-1.757.431-3l.46-6.236h10.078V26.98h1.582v6.316H83.83v-3.54h-8.38v3.547h-3.424zm5.1-6.323h5.121v-9.063h-3.46l-.23 3.345c-.062.935-.163 1.76-.302 2.474-.14.715-.304 1.338-.496 1.87a8.187 8.187 0 01-.633 1.374zm16.918 2.985c-1.16 0-2.158-.237-2.993-.712a4.913 4.913 0 01-1.92-2c-.446-.858-.67-1.853-.67-2.985 0-1.136.224-2.131.67-2.985a4.854 4.854 0 011.92-2c.835-.479 1.832-.719 2.993-.719 1.16 0 2.155.24 2.985.72a4.797 4.797 0 011.92 2c.45.853.676 1.848.676 2.984 0 1.132-.225 2.127-.676 2.986a4.854 4.854 0 01-1.92 2c-.83.474-1.825.711-2.985.711zm.021-2.654c.422 0 .78-.13 1.072-.388.292-.26.515-.619.669-1.08.158-.46.237-.992.237-1.596 0-.614-.079-1.151-.237-1.611-.154-.46-.377-.82-.67-1.08a1.56 1.56 0 00-1.07-.388c-.437 0-.806.13-1.109.389-.297.259-.525.618-.683 1.079-.153.46-.23.997-.23 1.61 0 .605.077 1.137.23 1.598.158.46.386.82.683 1.079.303.259.672.388 1.108.388zm16.878-12.63l.95 2.323a3.308 3.308 0 01-.993.532 5.58 5.58 0 01-1.302.244c-.513.044-1.16.067-1.942.072-.882.005-1.597.127-2.143.367a2.478 2.478 0 00-1.245 1.158c-.278.532-.462 1.242-.553 2.13h.093a3.778 3.778 0 011.352-1.576c.585-.384 1.341-.575 2.266-.575.964 0 1.803.208 2.518.625a4.16 4.16 0 011.654 1.77c.388.762.583 1.669.583 2.719 0 1.112-.223 2.081-.669 2.906a4.655 4.655 0 01-1.914 1.913c-.829.45-1.822.676-2.978.676-1.155 0-2.15-.235-2.985-.705-.829-.47-1.469-1.16-1.92-2.071-.446-.916-.669-2.04-.669-3.374v-.805c0-2.734.551-4.745 1.654-6.035 1.103-1.29 2.714-1.94 4.834-1.95a72.408 72.408 0 011.446 0c.436 0 .817-.021 1.143-.064.327-.048.6-.142.82-.28zm-4.301 12.63c.403 0 .751-.108 1.043-.324.293-.215.518-.525.676-.928.158-.402.238-.887.238-1.453 0-.565-.082-1.047-.245-1.445-.158-.398-.384-.7-.676-.907a1.736 1.736 0 00-1.043-.316c-.307 0-.585.06-.835.18-.249.115-.46.287-.632.518a2.4 2.4 0 00-.396.834c-.091.33-.137.71-.137 1.136 0 .845.178 1.506.533 1.986.354.48.846.72 1.474.72zm7.385 6.589V18.707h3.482V20.6h.108c.144-.336.347-.66.611-.971a3.07 3.07 0 011.022-.762c.417-.202.915-.303 1.496-.303.767 0 1.484.202 2.15.605.672.402 1.214 1.023 1.626 1.863.412.839.619 1.908.619 3.208 0 1.251-.199 2.299-.597 3.143-.394.844-.926 1.477-1.597 1.899a4.073 4.073 0 01-2.223.633c-.556 0-1.038-.091-1.446-.273a3.148 3.148 0 01-1.028-.72 3.425 3.425 0 01-.633-.956h-.072V33.9h-3.518zm3.446-9.668c0 .595.079 1.113.237 1.554.163.441.396.784.698 1.029.307.24.674.36 1.101.36.431 0 .798-.12 1.1-.36.302-.245.53-.588.683-1.029.159-.441.238-.959.238-1.553 0-.595-.079-1.11-.238-1.547-.153-.436-.381-.774-.683-1.014-.297-.24-.664-.36-1.1-.36-.432 0-.799.118-1.101.353-.302.234-.535.57-.698 1.007-.158.436-.237.956-.237 1.56zm11.575-2.331h7.033c1.52 0 2.712.358 3.575 1.073.863.71 1.297 1.673 1.302 2.891-.005.791-.204 1.48-.597 2.065-.388.58-.947 1.03-1.676 1.352-.724.316-1.592.475-2.604.475h-9.097V18.707h3.33v8.358h5.767c.46 0 .839-.112 1.137-.338.297-.225.448-.515.453-.87a1.132 1.132 0 00-.453-.913c-.298-.235-.677-.353-1.137-.353h-7.033v-2.69zm12.903 7.856V18.707h3.517v11.049h-3.517zm9.075-4.553l3.532-6.496h3.381v11.049h-3.331v-6.517l-3.524 6.517h-3.388V18.707h3.33v6.495zm3.216-10.409h2.316c-.005.902-.346 1.626-1.022 2.173-.671.546-1.582.82-2.733.82s-2.064-.274-2.741-.82c-.671-.547-1.004-1.271-.999-2.173h2.294c-.005.317.103.604.324.863.22.26.594.389 1.122.389.513 0 .88-.127 1.101-.381.22-.254.333-.545.338-.87zM72.026 45.752V34.704h3.517v4.114h3.897l2.683-4.114h4.071l-3.719 5.531 3.755 5.517h-4.12l-2.424-3.668h-4.142v3.668h-3.517zm20.007.209c-1.16 0-2.158-.237-2.992-.712a4.913 4.913 0 01-1.92-2c-.447-.858-.67-1.853-.67-2.985 0-1.136.223-2.131.67-2.985a4.856 4.856 0 011.92-2c.834-.479 1.832-.719 2.992-.719s2.156.24 2.985.72a4.796 4.796 0 011.92 2c.451.853.677 1.848.677 2.984 0 1.132-.225 2.127-.676 2.985a4.852 4.852 0 01-1.92 2c-.83.475-1.825.712-2.986.712zm.022-2.654c.422 0 .779-.13 1.071-.389.293-.258.516-.618.67-1.078.158-.46.237-.993.237-1.597 0-.614-.08-1.151-.238-1.612-.153-.46-.376-.82-.669-1.078a1.56 1.56 0 00-1.071-.389c-.437 0-.806.13-1.108.389-.297.258-.525.618-.683 1.078-.154.46-.23.998-.23 1.612 0 .604.076 1.136.23 1.596.158.46.386.82.683 1.08.302.258.671.388 1.108.388zm12.908 6.193V31.021h3.373V49.5h-3.373zm0-3.539c-.878 0-1.681-.139-2.41-.417a5.647 5.647 0 01-1.892-1.173 5.374 5.374 0 01-1.23-1.805c-.292-.695-.439-1.463-.439-2.302s.147-1.606.44-2.302c.292-.7.702-1.304 1.229-1.812a5.497 5.497 0 011.892-1.173c.729-.278 1.532-.417 2.41-.417h.589v11.401h-.589zm0-2.676h.359v-6.049h-.359c-.355 0-.679.077-.972.23a2.25 2.25 0 00-.74.64 3 3 0 00-.468.957 4.327 4.327 0 00-.158 1.201c0 .57.096 1.086.288 1.547.191.455.462.815.812 1.079a2.02 2.02 0 001.238.395zm3.373 2.676h-.583v-11.4h.583c.878 0 1.681.138 2.41.416a5.492 5.492 0 011.891 1.173 5.299 5.299 0 011.238 1.813c.292.695.438 1.462.438 2.301 0 .84-.146 1.607-.438 2.302a5.317 5.317 0 01-1.238 1.805 5.642 5.642 0 01-1.891 1.173c-.729.278-1.532.417-2.41.417zm0-2.676c.36 0 .683-.076.971-.23.288-.153.532-.364.734-.633.206-.273.364-.592.474-.957.111-.369.166-.77.166-1.2 0-.581-.096-1.099-.288-1.554a2.56 2.56 0 00-.813-1.08c-.345-.263-.76-.395-1.244-.395h-.352v6.05h.352zm12.955 2.676c-1.156 0-2.154-.228-2.993-.683a4.722 4.722 0 01-1.927-1.964c-.446-.853-.669-1.868-.669-3.043 0-1.14.225-2.138.676-2.992a4.883 4.883 0 011.906-2c.82-.479 1.786-.719 2.899-.719.786 0 1.505.122 2.158.367a4.64 4.64 0 011.69 1.086c.475.48.844 1.072 1.108 1.777.263.7.395 1.503.395 2.41v.877h-9.602v-2.043h6.329a1.97 1.97 0 00-.266-1 1.804 1.804 0 00-.712-.683 2.054 2.054 0 00-1.028-.252 2.1 2.1 0 00-1.058.266 1.998 1.998 0 00-1.028 1.726v2.08c0 .45.088.846.266 1.186.177.336.429.597.755.784.326.187.715.28 1.165.28.312 0 .595-.042.849-.129.254-.086.472-.213.655-.38.182-.169.319-.375.41-.62l3.229.094a3.997 3.997 0 01-.884 1.892c-.451.532-1.043.947-1.777 1.244-.734.293-1.583.44-2.546.44z" fill="#080809"/><path d="M151.894 12.869c-.527-.692-1.293-2.334-.138-3.369m2.666 3.369c-.527-.692-1.293-2.334-.138-3.369" stroke="#000" stroke-width=".925"/></svg>