<svg width="240" height="24" viewBox="0 0 240 24" fill="none" xmlns="http://www.w3.org/2000/svg"><path d="M12 19.5v-15m0 0l6.75 6.75M12 4.5l-6.75 6.75M40 4.5v15m0 0l6.75-6.75M40 19.5l-6.75-6.75" stroke="#A2ACB1" stroke-width="1.5" stroke-linecap="round" stroke-linejoin="round"/><path stroke="#E6E6E8" stroke-linecap="round" d="M62.5 2.5v19"/><path d="M92.47 21.53a.75.75 0 101.06-1.06l-1.06 1.06zM83.25 7.5a.75.75 0 00-1.5 0h1.5zm-1.5 6a.75.75 0 001.5 0h-1.5zm3.75-2.25a.75.75 0 000-1.5v1.5zm-6-1.5a.75.75 0 000 1.5v-1.5zm3 7.5a6.75 6.75 0 01-6.75-6.75h-1.5a8.25 8.25 0 008.25 8.25v-1.5zm-6.75-6.75a6.75 6.75 0 016.75-6.75v-1.5a8.25 8.25 0 00-8.25 8.25h1.5zm6.75-6.75a6.75 6.75 0 016.75 6.75h1.5a8.25 8.25 0 00-8.25-8.25v1.5zm11.03 16.72l-5.196-5.197-1.061 1.06 5.197 5.197 1.06-1.06zm-4.28-9.97a6.73 6.73 0 01-1.977 4.773l1.06 1.06A8.226 8.226 0 0090.75 10.5h-1.5zm-1.977 4.773A6.727 6.727 0 0182.5 17.25v1.5a8.226 8.226 0 005.834-2.416l-1.061-1.061zM81.75 7.5v6h1.5v-6h-1.5zm3.75 2.25h-6v1.5h6v-1.5zm38.97 11.78a.75.75 0 101.06-1.06l-1.06 1.06zm-6.97-10.28a.75.75 0 000-1.5v1.5zm-6-1.5a.75.75 0 000 1.5v-1.5zm3 7.5a6.75 6.75 0 01-6.75-6.75h-1.5a8.25 8.25 0 008.25 8.25v-1.5zm-6.75-6.75a6.75 6.75 0 016.75-6.75v-1.5a8.25 8.25 0 00-8.25 8.25h1.5zm6.75-6.75a6.75 6.75 0 016.75 6.75h1.5a8.25 8.25 0 00-8.25-8.25v1.5zm11.03 16.72l-5.196-5.197-1.061 1.06 5.197 5.197 1.06-1.06zm-4.28-9.97a6.73 6.73 0 01-1.977 4.773l1.061 1.06a8.227 8.227 0 002.416-5.833h-1.5zm-1.977 4.773a6.726 6.726 0 01-4.773 1.977v1.5a8.229 8.229 0 005.834-2.416l-1.061-1.061zM117.5 9.75h-6v1.5h6v-1.5z" fill="#A2ACB1"/><path stroke="#E6E6E8" stroke-linecap="round" d="M138.5 2.5v19"/><path d="M151.75 6a.75.75 0 000 1.5V6zm16.5 1.5a.75.75 0 000-1.5v1.5zm-16.5 3.75a.75.75 0 000 1.5v-1.5zm16.5 1.5a.75.75 0 000-1.5v1.5zm-16.5 3.75a.75.75 0 000 1.5v-1.5zM160 18a.75.75 0 000-1.5V18zm-8.25-10.5h16.5V6h-16.5v1.5zm0 5.25h16.5v-1.5h-16.5v1.5zm0 5.25H160v-1.5h-8.25V18zm37.75-1.5a.75.75 0 000 1.5v-1.5zm8.25 1.5a.75.75 0 000-1.5V18zm-8.25 0h8.25v-1.5h-8.25V18zm-4-6.75a.75.75 0 000 1.5v-1.5zm16.5 1.5a.75.75 0 000-1.5v1.5zm-16.5 0H202v-1.5h-16.5v1.5zm0-6.75a.75.75 0 000 1.5V6zM202 7.5a.75.75 0 000-1.5v1.5zm-16.5 0H202V6h-16.5v1.5zM219.75 6a.75.75 0 000 1.5V6zm16.5 1.5a.75.75 0 000-1.5v1.5zm-16.5 3.75a.75.75 0 000 1.5v-1.5zm16.5 1.5a.75.75 0 000-1.5v1.5zM228 16.5a.75.75 0 000 1.5v-1.5zm8.25 1.5a.75.75 0 000-1.5V18zm-16.5-10.5h16.5V6h-16.5v1.5zm0 5.25h16.5v-1.5h-16.5v1.5zM228 18h8.25v-1.5H228V18z" fill="#A2ACB1"/></svg>